<svg width="948" height="259" viewBox="0 0 948 259" fill="none" xmlns="http://www.w3.org/2000/svg">
<path d="M10.4218 210.719C10.4218 218.805 14.1952 223.118 22.2811 223.118C30.0077 223.118 34.1404 218.805 34.1404 210.719V206.586H34.4998C38.8123 217.727 49.4138 223.118 62.1715 223.118C84.0933 223.118 103.32 207.125 103.32 173.165C103.32 148.009 90.562 124.47 62.8903 124.47C51.2107 124.47 42.2263 129.321 37.0154 137.766H36.6561V102.188C36.6561 93.5635 31.4451 89.0714 23.5389 89.0714C15.6327 89.0714 10.4218 93.5635 10.4218 102.188V210.719ZM77.0855 174.063C77.0855 189.516 70.2574 202.274 56.2419 202.633C40.9685 202.633 35.2186 188.977 35.2186 174.063C35.2186 160.587 40.2498 144.774 56.2419 144.954C72.9527 144.954 77.0855 161.844 77.0855 174.063ZM207.417 151.423C207.417 132.556 189.988 124.47 164.832 124.47C137.879 124.47 123.144 137.766 123.144 148.188C123.144 153.579 127.636 158.251 134.285 158.251C144.707 158.251 145.246 143.876 164.652 143.876C173.456 143.876 181.183 147.11 181.183 154.657C181.183 162.204 176.152 163.641 169.863 164.36L153.871 166.157C133.746 168.493 117.215 174.602 117.215 196.344C117.215 212.875 131.949 223.118 146.863 223.118C160.699 223.118 172.558 219.164 182.8 207.844C183.16 215.93 186.933 223.118 198.253 223.118C204.542 223.118 210.113 218.985 210.113 213.055C210.113 208.922 207.417 206.407 207.417 195.446V151.423ZM181.183 186.821C181.183 196.524 172.378 205.868 158.003 205.868C149.019 205.868 143.449 201.016 143.449 195.086C143.449 187.18 149.378 183.766 160.339 182.149L169.863 180.712C172.917 180.172 178.308 179.274 181.183 176.579V186.821ZM231.554 210C231.554 217.008 234.429 223.118 244.671 223.118C254.913 223.118 257.788 217.008 257.788 210V179.454C257.788 157.712 263.538 150.344 274.14 150.344H278.812C285.28 150.344 291.749 146.93 291.749 137.227C291.749 129.86 285.64 124.47 277.374 124.47C264.617 124.47 258.687 135.79 255.632 146.751H255.273V136.688C255.273 128.782 250.062 124.47 243.413 124.47C236.765 124.47 231.554 128.782 231.554 136.688V210ZM303.29 210C303.29 218.625 308.501 223.118 316.407 223.118C324.313 223.118 329.524 218.625 329.524 210V190.055L338.688 181.969L363.485 217.008C365.461 219.883 368.875 223.118 375.344 223.118C382.352 223.118 387.743 217.008 387.743 210.36C387.743 206.047 385.946 203.172 385.047 201.915L357.735 165.258L377.141 144.954C379.477 142.438 381.094 141.001 381.094 136.329C381.094 129.681 374.625 124.47 368.696 124.47C364.743 124.47 361.329 126.626 358.633 129.501L329.524 161.844V102.188C329.524 93.5635 324.313 89.0714 316.407 89.0714C308.501 89.0714 303.29 93.5635 303.29 102.188V210Z" fill="white"/>
<path d="M398.951 154.477C398.951 193.649 417.997 223.836 464.357 223.836C508.559 223.836 529.762 190.954 529.762 154.477C529.762 116.563 506.763 88.3526 464.357 88.3526C421.951 88.3526 398.951 116.563 398.951 154.477ZM428.419 154.477C428.419 129.681 440.279 112.071 464.357 112.071C488.435 112.071 500.294 129.681 500.294 154.477C500.294 179.274 491.13 200.118 464.357 200.118C436.685 200.118 428.419 179.274 428.419 154.477ZM637.108 137.587C637.108 130.579 634.233 124.47 623.991 124.47C613.749 124.47 610.874 130.579 610.874 137.587V180.891C610.874 194.008 600.093 201.555 590.929 201.555C579.609 201.555 574.398 194.008 574.398 183.407V137.587C574.398 130.579 571.523 124.47 561.281 124.47C551.038 124.47 548.163 130.579 548.163 137.587V188.618C548.163 215.211 565.413 223.118 581.226 223.118C596.14 223.118 605.663 216.289 613.03 206.586H613.39V210C613.39 217.907 616.983 223.118 625.249 223.118C633.515 223.118 637.108 217.907 637.108 210V137.587ZM664.839 199.758C664.839 215.211 672.745 223.118 691.792 223.118C704.37 223.118 710.839 218.985 710.839 211.438C710.839 205.868 707.425 202.633 701.675 202.633H697.901C693.229 202.633 691.073 200.477 691.073 196.524V144.055H698.979C706.706 144.055 710.839 141.72 710.839 135.431C710.839 129.141 706.706 126.806 698.979 126.806H691.073V110.813C691.073 102.188 685.862 97.6963 677.956 97.6963C670.05 97.6963 664.839 102.188 664.839 110.813V126.806H660.347C652.98 126.806 649.925 129.681 649.925 135.431C649.925 141.18 652.98 144.055 660.347 144.055H664.839V199.758Z" fill="white"/>
<path d="M719.356 93.3802C721.31 92.7917 724.867 92.2527 728.053 91.9905L729.464 95.1912C729.993 96.4565 734.217 119.474 736.714 124.964C736.817 125.191 736.966 125.429 737.134 125.671C737.632 131.817 737.886 138.032 737.108 139.915C735.905 142.822 743.894 138.98 748.848 134.217C748.919 134.258 748.99 134.296 749.061 134.335C749.053 136.295 749.102 138.249 749.219 140.145C748.55 141.356 748.13 142.728 748.057 144.203L724.558 193.709C724.303 198.76 728.121 203.098 733.166 203.49C733.412 203.51 733.657 203.518 733.899 203.518C738.635 203.518 742.678 199.94 743.183 195.155L768.569 179.232C776.891 185.192 786.89 159.967 796.844 167.068C797.545 165.404 798.785 194.062 800.126 192.364C804.178 187.238 809.405 186.204 814.831 187.368C811.378 187.935 808.374 189.459 806.108 192.281C791.664 210.268 816.904 196.531 821.999 199.992C825.266 202.21 805.086 202.498 793.776 206.478C787.437 208.708 786.25 214.06 787.774 216.793C791.153 222.841 839.694 224.418 860.474 221.948C865.839 221.31 869.355 220.402 869.766 219.233C870.344 217.587 870.159 213.505 869.609 208.536C884.071 213.333 903.138 213.003 912.148 214.173C923.697 215.674 961.066 212.691 943.277 208.536C925.489 204.382 941.921 205.162 918.077 199.349C905.458 196.274 891.497 188.068 876.535 187.807C877.471 147.991 838.496 123.251 793.693 84.2329L795.932 80.2939L781.923 75.1176C780.183 77.901 776.891 80.4891 774.692 82.1075C771.206 84.6743 759.779 81.7143 761.654 77.0999C764.457 79.5502 771.107 80.5788 773.622 78.7263C776.615 76.522 781.642 72.5295 782.004 68.6801C782.094 67.7238 781.907 66.7768 781.315 65.8687C778.347 61.301 772.046 53.5059 761.88 54.4596C761.88 54.4596 762.02 54.9919 762.208 55.8627C758.575 52.8291 754.907 50.4524 751.816 49.8224C741.311 47.681 733.657 46.9079 733.657 46.9079L724.48 54.3272L696.927 53.0151C696.483 52.5991 695.906 52.3182 695.251 52.2741C693.744 52.1724 692.44 53.312 692.338 54.8194C692.267 55.86 692.797 56.7922 693.621 57.3112L693.745 60.6496C693.745 60.6496 700.859 70.546 704.298 71.1867C707.737 71.8287 721.162 76.2131 722.043 78.321C722.08 78.4093 722.11 78.4815 722.146 78.5658C714.502 78.9122 697.837 80.35 692.604 86.3141C691.677 87.372 691.783 88.9811 692.841 89.9093C693.9 90.8376 695.509 90.7306 696.437 89.6739C696.803 89.2566 697.32 88.8687 697.906 88.4982C698.888 90.1247 700.129 91.9223 700.129 91.9223C700.129 91.9223 715.424 94.5626 719.356 93.3802ZM733.054 57.7713C734.743 57.885 736.02 59.3456 735.906 61.0349C735.791 62.7228 734.33 63.9988 732.643 63.8851C730.954 63.7714 729.676 62.3109 729.791 60.6216C729.904 58.9336 731.366 57.6576 733.054 57.7713Z" fill="white"/>
<path d="M680.056 53.1211L635.162 28.2711L631.821 32.0281L678.574 54.9417L680.056 53.1211Z" fill="white"/>
<path d="M687.948 47.8188L662.39 3.32946L657.587 4.81775L685.738 48.6102L687.948 47.8188Z" fill="white"/>
<path d="M622.437 67.2984L674.505 66.6131L675.003 64.322L623.719 62.4351L622.437 67.2984Z" fill="white"/>
</svg>
