<svg width="77" height="78" viewBox="0 0 77 78" fill="none" xmlns="http://www.w3.org/2000/svg">
<path d="M1.63894 38.2385C1.63714 44.7419 3.3364 51.0919 6.56752 56.6889L1.32993 75.8122L20.9003 70.6808C26.3132 73.6276 32.3779 75.1716 38.5409 75.172H38.5571C58.9024 75.172 75.4639 58.6165 75.4726 38.2676C75.4765 28.4072 71.64 19.135 64.6695 12.1591C57.7002 5.18388 48.4314 1.34044 38.5556 1.33594C18.208 1.33594 1.64764 17.8906 1.63924 38.2385" fill="url(#paint0_linear_314_6)"/>
<path d="M0.321012 38.2262C0.318912 44.9636 2.07908 51.5407 5.4254 57.3382L0 77.147L20.2721 71.8317C25.8577 74.8771 32.1465 76.4828 38.5457 76.4852H38.5622C59.6374 76.4852 76.7939 59.3341 76.8029 38.2568C76.8065 28.0421 72.8319 18.4366 65.6125 11.2108C58.3921 3.98595 48.7917 0.00420016 38.5622 0C17.4835 0 0.329712 17.1486 0.321312 38.2262H0.321012ZM12.3935 56.3397L11.6365 55.1382C8.45462 50.0788 6.77515 44.2322 6.77755 38.2286C6.78445 20.7095 21.0422 6.45624 38.5743 6.45624C47.0646 6.45984 55.0437 9.76957 61.0451 15.7746C67.0462 21.7802 70.3484 29.7635 70.3463 38.2544C70.3385 55.7736 56.0805 70.0286 38.5622 70.0286H38.5496C32.8455 70.0256 27.2512 68.4938 22.3724 65.599L21.2114 64.9104L9.18155 68.0645L12.3935 56.3394V56.3397Z" fill="url(#paint1_linear_314_6)"/>
<path d="M29.0045 22.245C28.2886 20.654 27.5353 20.6219 26.8546 20.594C26.2972 20.57 25.6599 20.5718 25.0233 20.5718C24.3861 20.5718 23.3508 20.8115 22.4756 21.7671C21.5996 22.7235 19.1311 25.0348 19.1311 29.7357C19.1311 34.4368 22.5551 38.9799 23.0325 39.618C23.5104 40.2549 29.6426 50.2105 39.3546 54.0405C47.4261 57.2233 49.0686 56.5903 50.8204 56.4307C52.5725 56.2716 56.4738 54.12 57.2697 51.8888C58.0663 49.6579 58.0663 47.7456 57.8275 47.346C57.5887 46.9479 56.9514 46.7088 55.9959 46.2312C55.0401 45.7533 50.3425 43.4417 49.4667 43.1228C48.5907 42.8041 47.9538 42.6451 47.3166 43.6019C46.6793 44.5571 44.8496 46.7088 44.2919 47.346C43.7347 47.9847 43.177 48.0642 42.2218 47.5863C41.2656 47.1069 38.1884 46.0992 34.5376 42.8443C31.6971 40.3116 29.7794 37.184 29.222 36.2273C28.6646 35.2721 29.1623 34.7542 29.6414 34.2781C30.0707 33.85 30.5972 33.1624 31.0755 32.6047C31.5519 32.0466 31.7109 31.6485 32.0295 31.0113C32.3484 30.3735 32.1888 29.8155 31.9503 29.3375C31.7109 28.8596 29.8541 24.1344 29.0045 22.2453" fill="white"/>
<defs>
<linearGradient id="paint0_linear_314_6" x1="38.4013" y1="75.8122" x2="38.4013" y2="1.33594" gradientUnits="userSpaceOnUse">
<stop stop-color="#1FAF38"/>
<stop offset="1" stop-color="#60D669"/>
</linearGradient>
<linearGradient id="paint1_linear_314_6" x1="38.4014" y1="77.147" x2="38.4014" y2="0" gradientUnits="userSpaceOnUse">
<stop stop-color="#F9F9F9"/>
<stop offset="1" stop-color="white"/>
</linearGradient>
</defs>
</svg>
